. 
 
http://www.torrenting.com          :     Once & For all ;)


               www . Torrenting . Com 

(((((((((((((= Enjoy No RAR releases =))))))))))))))))))))


...................................NFO:....................................

.[pre]
oooooo     oooo  o8o   .oooooo..o ooooo     ooo       .o.       ooooo         o8o   .oooooo..o oooooooooooo
`888.     .8'   `"'  d8P'    `Y8 `888'     `8'      .888.      `888'         `"'  d8P'    `Y8 `888'     `8
 `888.   .8'   oooo  Y88bo.       888       8      .8"888.      888         oooo  Y88bo.       888        
  `888. .8'    `888   `"Y8888o.   888       8     .8' `888.     888         `888   `"Y8888o.   888oooo8    
   `888.8'      888       `"Y88b  888       8    .88ooo8888.    888          888       `"Y88b  888    "    
    `888'       888  oo     .d8P  `88.    .8'   .8'     `888.   888       o  888  oo     .d8P  888       o
     `8'       o888o 8""88888P'     `YbodP'    o88o     o8888o o888ooooood8 o888o 8""88888P'  o888ooooood8




Title: Shark Night 2011 R5 LiNE XviD - VISUALiSE
Format: Xvid
Language: English
Subtitles: No
Imdb: http://www.imdb.com/title/tt1633356/

Plot:
A weekend at a lake house in the Louisiana Gulf 
turns into a nightmare for seven vacationers as 
they are subjected to shark attacks. 

Sources:
Video: RELIZLAB - Many Thanks :D
Audio: MiSTERE - Many Thanks As Always :D

Release Notes:
Done our normal thing on this ran some filters and
a little sharpen then muxed the audio back 
to our encode :D :D

enjoy. :P

Info:

Video
ID                               : 0
Format                           : MPEG-4 Visual
Format profile                   : Advanced Simple@L5
Format settings, BVOP            : 2
Format settings, QPel            : No
Format settings, GMC             : No warppoints
Format settings, Matrix          : Default (H.263)
Codec ID                         : XVID
Codec ID/Hint                    : XviD
Duration                         : 1h 26mn
Bit rate                         : 1 498 Kbps
Width                            : 720 pixels
Height                           : 400 pixels
Display aspect ratio             : 16:9
Frame rate                       : 25.000 fps
Color space                      : YUV
Chroma subsampling               : 4:2:0
Bit depth                        : 8 bits
Scan type                        : Progressive
Compression mode                 : Lossy
Bits/(Pixel*Frame)               : 0.208
Stream size                      : 928 MiB (92%)

Audio
ID                               : 1
Format                           : MPEG Audio
Format version                   : Version 1
Format profile                   : Layer 3
Mode                             : Joint stereo
Mode extension                   : MS Stereo
Codec ID                         : 55
Codec ID/Hint                    : MP3
Duration                         : 1h 26mn
Bit rate mode                    : Constant
Bit rate                         : 128 Kbps
Channel(s)                       : 2 channels
Sampling rate                    : 44.1 KHz
Compression mode                 : Lossy
Stream size                      : 79.3 MiB (8%)
Alignment                        : Aligned on interleaves
Interleave, duration             : 40 ms (1.00 video frame)
Writing library                  : LAME3.98r
Encoding settings                : -m j -V 4 -q 2 -lowpass 17 -b 128


Screens:
[IMG]http://i.imgur.com/K77gR.png[/IMG]
[IMG]http://i.imgur.com/0h17A.png[/IMG]
[IMG]http://i.imgur.com/Fqjwh.png[/IMG]
[IMG]http://i.imgur.com/KmJZh.png[/IMG]

Greetz
The Select Few .... YOU Know Who YOU Are ;)
The Rest Of You ................... SUCK :P
[/pre]